<svg id="ae1cf8aa-0c48-4b60-8168-93c755b97def" data-name="Layer 1" xmlns="http://www.w3.org/2000/svg" width="5.04in" height="2.02in" viewBox="0 0 363.12 145.1"><rect x="0.75" y="0.75" width="135.08" height="143.6" fill="#b9e4ed" stroke="#10426b" stroke-linecap="round" stroke-linejoin="round" stroke-width="1.5"/><path d="M23.81,25.85c0,1.34,1.05,1.86,2.23,1.86.77,0,1.95-.22,1.95-1.25s-1.5-1.27-3-1.66-3-1-3-2.86c0-2.06,1.95-3,3.76-3,2.1,0,4,.91,4,3.23H27.66c-.07-1.21-.93-1.52-2-1.52-.7,0-1.52.3-1.52,1.14s.48.88,3,1.53c.73.18,3,.64,3,2.93,0,1.84-1.45,3.22-4.18,3.22-2.22,0-4.3-1.1-4.27-3.58Z" fill="#10426b"/><path d="M31.44,19.14H36c2.51,0,3.48,1.59,3.48,3.22s-1,3.23-3.48,3.23H33.65v3.6H31.44Zm2.21,4.73h1.72c1,0,1.94-.23,1.94-1.51s-.92-1.51-1.94-1.51H33.65Z" fill="#10426b"/><path d="M40.83,19.14H43V29.19H40.83Z" fill="#10426b"/><path d="M17.24,36h3.11l2.35,6.91h0L25,36h3.11v10H26V39h0L23.5,46.08H21.79l-2.46-7h0v7H17.24Z" fill="#10426b"/><path d="M29.7,41c.12-1.87,1.79-2.43,3.42-2.43,1.45,0,3.2.32,3.2,2.07v3.79a3.73,3.73,0,0,0,.25,1.61h-2a3.22,3.22,0,0,1-.14-.7,3.33,3.33,0,0,1-2.45.9c-1.37,0-2.47-.69-2.47-2.18,0-1.65,1.24-2,2.47-2.21s2.37-.14,2.37-1-.59-1-1.3-1-1.25.31-1.32,1.1Zm4.62,1.48a3.88,3.88,0,0,1-1.66.42c-.62.13-1.18.34-1.18,1.07s.57.93,1.22.93a1.49,1.49,0,0,0,1.62-1.67Z" fill="#10426b"/><path d="M39.92,37.68h-2V36h2Zm-2,1.12h2v7.28h-2Z" fill="#10426b"/><path d="M41.5,38.8h1.89v1h0a2.58,2.58,0,0,1,2.22-1.21c2.12,0,2.66,1.19,2.66,3v4.47h-2V42c0-1.19-.35-1.79-1.28-1.79s-1.55.61-1.55,2.09v3.81h-2Z" fill="#10426b"/><path d="M117.87,21a2.18,2.18,0,0,0-2.19-1.77c-2,0-2.73,1.69-2.73,3.45s.74,3.37,2.73,3.37A2.27,2.27,0,0,0,118,23.78h2.13a4.24,4.24,0,0,1-4.41,4.11c-3.11,0-4.94-2.32-4.94-5.23s1.83-5.3,4.94-5.3A4.07,4.07,0,0,1,120,21Z" fill="#10426b"/><path d="M123.11,24.31c0,1.34,1,1.86,2.22,1.86.77,0,2-.22,2-1.25s-1.51-1.27-3-1.66-3-1-3-2.86c0-2.06,1.94-3,3.75-3,2.1,0,4,.91,4,3.23H127c-.07-1.21-.93-1.52-2-1.52-.7,0-1.52.3-1.52,1.14s.48.88,3,1.53c.73.18,3,.64,3,2.92,0,1.85-1.45,3.23-4.17,3.23-2.23,0-4.31-1.1-4.28-3.58Z" fill="#10426b"/><path d="M94.18,56.1c0,1.34,1,1.86,2.22,1.86.77,0,2-.22,2-1.25s-1.51-1.27-3-1.66-3-1-3-2.86c0-2.06,1.94-3,3.75-3,2.1,0,4,.92,4,3.24H98c-.07-1.21-.93-1.52-2-1.52-.7,0-1.52.3-1.52,1.14s.48.88,3,1.52c.73.19,3,.65,3,2.93,0,1.85-1.45,3.23-4.17,3.23-2.23,0-4.31-1.1-4.28-3.58Z" fill="#10426b"/><path d="M108.5,52.76A2.17,2.17,0,0,0,106.31,51c-2,0-2.73,1.69-2.73,3.45s.74,3.37,2.73,3.37a2.25,2.25,0,0,0,2.27-2.25h2.14a4.24,4.24,0,0,1-4.41,4.11c-3.11,0-4.94-2.32-4.94-5.23s1.83-5.31,4.94-5.31a4.08,4.08,0,0,1,4.33,3.62Z" fill="#10426b"/><path d="M112.23,49.38h2.21v8.2h4.89v1.86h-7.1Z" fill="#10426b"/><path d="M120.57,49.38h2.21v4.17l3.93-4.17h2.76l-3.93,4,4.31,6.08h-2.78l-3-4.52-1.27,1.28v3.24h-2.21Z" fill="#10426b"/><path d="M93.74,79.77h3.11l2.35,6.91h0l2.22-6.91h3.11v10h-2.07V82.69h0L100,89.82H98.3l-2.46-7.06h0v7.06H93.74Z" fill="#10426b"/><path d="M111,79.53c3.1,0,4.93,2.32,4.93,5.3s-1.83,5.23-4.93,5.23-4.94-2.32-4.94-5.23S107.9,79.53,111,79.53Zm0,8.67c2,0,2.72-1.69,2.72-3.37S113,81.38,111,81.38s-2.73,1.69-2.73,3.45S109,88.2,111,88.2Z" fill="#10426b"/><path d="M119,86.48c0,1.34,1,1.86,2.22,1.86.77,0,1.95-.22,1.95-1.25s-1.5-1.27-3-1.66-3-1-3-2.86c0-2.06,1.94-3,3.75-3,2.1,0,4,.91,4,3.23H122.8c-.07-1.21-.93-1.52-2-1.52-.7,0-1.52.3-1.52,1.14s.48.88,3,1.53c.73.18,3,.64,3,2.92,0,1.85-1.45,3.23-4.18,3.23-2.22,0-4.3-1.1-4.27-3.58Z" fill="#10426b"/><path d="M126.58,79.77h2.21v10h-2.21Z" fill="#10426b"/><path d="M93.74,111.52h3.11l2.35,6.91h0l2.22-6.91h3.11v10h-2.07v-7.13h0L100,121.57H98.3l-2.46-7h0v7H93.74Z" fill="#10426b"/><path d="M106.5,111.52h2.21v10H106.5Z" fill="#10426b"/><path d="M112.16,118.23c0,1.34,1,1.86,2.22,1.86.78,0,2-.22,2-1.25s-1.51-1.27-3-1.66-3-1-3-2.86c0-2.06,1.94-3,3.76-3,2.09,0,4,.91,4,3.24H116c-.07-1.22-.93-1.53-2-1.53-.71,0-1.52.3-1.52,1.15s.48.87,3,1.52c.74.18,3,.64,3,2.93,0,1.84-1.45,3.22-4.18,3.22-2.22,0-4.31-1.1-4.28-3.58Z" fill="#10426b"/><path d="M124.29,111.28c3.11,0,4.94,2.32,4.94,5.31s-1.83,5.22-4.94,5.22-4.94-2.32-4.94-5.22S121.18,111.28,124.29,111.28Zm0,8.67c2,0,2.73-1.69,2.73-3.36s-.75-3.45-2.73-3.45-2.73,1.69-2.73,3.45S122.3,120,124.29,120Z" fill="#10426b"/><rect x="227.29" y="2.6" width="135.08" height="135.15" fill="#fcc28c" stroke="#10426b" stroke-linecap="round" stroke-linejoin="round" stroke-width="1.5"/><g id="f98c7daa-0ecf-4304-ac3e-8b3abce81793" data-name="Arrow (.75 pt)"><line x1="135.83" y1="22.08" x2="216.27" y2="22.08" fill="none" stroke="#10426b" stroke-width="1.5"/><polygon points="213.8 25.65 227.29 22.04 213.8 18.42 213.8 25.65" fill="#10426b"/></g><g id="bb71309e-11c1-4753-9654-6dd6ee3378aa" data-name="Arrow (.75 pt)"><line x1="135.83" y1="55.87" x2="216.27" y2="55.87" fill="none" stroke="#10426b" stroke-width="1.5"/><polygon points="213.8 59.44 227.29 55.82 213.8 52.21 213.8 59.44" fill="#10426b"/></g><g id="e38716b3-b0a0-4a98-875d-f102e20bba0f" data-name="Arrow (.75 pt)"><line x1="135.83" y1="86.25" x2="216.27" y2="86.25" fill="none" stroke="#10426b" stroke-width="1.5"/><polygon points="213.8 89.82 227.29 86.2 213.8 82.59 213.8 89.82" fill="#10426b"/></g><g id="baefb1f7-a8a7-45a5-9138-e6e610f2aa80" data-name="Arrow (.75 pt)"><line x1="227.29" y1="117.91" x2="146.86" y2="117.91" fill="none" stroke="#10426b" stroke-width="1.5"/><polygon points="149.33 114.34 135.83 117.95 149.33 121.57 149.33 114.34" fill="#10426b"/></g><path d="M241.93,21a2.18,2.18,0,0,0-2.19-1.77c-2,0-2.73,1.69-2.73,3.45s.74,3.37,2.73,3.37A2.25,2.25,0,0,0,242,23.78h2.14a4.24,4.24,0,0,1-4.41,4.11c-3.11,0-4.94-2.32-4.94-5.23s1.83-5.3,4.94-5.3A4.08,4.08,0,0,1,244.07,21Z" fill="#10426b"/><path d="M247.16,24.31c0,1.34,1.05,1.86,2.23,1.86.77,0,2-.22,2-1.25s-1.5-1.27-3-1.66-3-1-3-2.86c0-2.06,1.95-3,3.76-3,2.1,0,4,.91,4,3.23H251c-.07-1.21-.93-1.52-2-1.52-.7,0-1.52.3-1.52,1.14s.48.88,3,1.53c.73.18,3,.64,3,2.92,0,1.85-1.45,3.23-4.18,3.23-2.22,0-4.3-1.1-4.27-3.58Z" fill="#10426b"/><path d="M236.74,56.1c0,1.34,1,1.86,2.22,1.86.78,0,2-.22,2-1.25s-1.51-1.27-3-1.66-3-1-3-2.86c0-2.06,1.94-3,3.75-3,2.1,0,4,.92,4,3.24h-2.14c-.07-1.21-.93-1.52-2-1.52-.71,0-1.52.3-1.52,1.14s.47.88,3,1.52c.73.19,3,.65,3,2.93,0,1.85-1.45,3.23-4.18,3.23-2.23,0-4.31-1.1-4.28-3.58Z" fill="#10426b"/><path d="M251.06,52.76A2.17,2.17,0,0,0,248.87,51c-2,0-2.73,1.69-2.73,3.45s.74,3.37,2.73,3.37a2.27,2.27,0,0,0,2.28-2.25h2.14a4.25,4.25,0,0,1-4.42,4.11c-3.11,0-4.94-2.32-4.94-5.23s1.83-5.31,4.94-5.31a4.08,4.08,0,0,1,4.33,3.62Z" fill="#10426b"/><path d="M254.79,49.38H257v8.2h4.9v1.86h-7.11Z" fill="#10426b"/><path d="M263.14,49.38h2.2v4.17l3.93-4.17H272l-3.93,4,4.31,6.08h-2.77l-3-4.52-1.27,1.28v3.24h-2.2Z" fill="#10426b"/><path d="M236.74,86.48c0,1.34,1,1.86,2.22,1.86.78,0,2-.22,2-1.25s-1.51-1.27-3-1.66-3-1-3-2.86c0-2.06,1.94-3,3.75-3,2.1,0,4,.91,4,3.23h-2.14c-.07-1.21-.93-1.52-2-1.52-.71,0-1.52.3-1.52,1.14s.47.88,3,1.53c.73.18,3,.64,3,2.92,0,1.85-1.45,3.23-4.18,3.23-2.23,0-4.31-1.1-4.28-3.58Z" fill="#10426b"/><path d="M244.37,79.77h4.33c2.6,0,4.56,1.63,4.56,5,0,2.91-1.49,5.08-4.56,5.08h-4.33Zm2.2,8.19h2c1.28,0,2.51-.79,2.51-3,0-2-.71-3.33-2.9-3.33h-1.58Z" fill="#10426b"/><path d="M254.79,79.77H257v10h-2.21Z" fill="#10426b"/><path d="M236.74,118.23c0,1.34,1,1.86,2.22,1.86.78,0,2-.22,2-1.25s-1.51-1.27-3-1.66-3-1-3-2.86c0-2.06,1.94-3,3.75-3,2.1,0,4,.91,4,3.24h-2.14c-.07-1.22-.93-1.53-2-1.53-.71,0-1.52.3-1.52,1.15s.47.87,3,1.52c.73.18,3,.64,3,2.93,0,1.84-1.45,3.22-4.18,3.22-2.23,0-4.31-1.1-4.28-3.58Z" fill="#10426b"/><path d="M244.37,111.52h4.33c2.6,0,4.56,1.63,4.56,5,0,2.91-1.49,5.08-4.56,5.08h-4.33Zm2.2,8.19h2c1.28,0,2.51-.79,2.51-3,0-2-.71-3.33-2.9-3.33h-1.58Z" fill="#10426b"/><path d="M259.29,111.28c3.11,0,4.94,2.32,4.94,5.31s-1.83,5.22-4.94,5.22-4.93-2.32-4.93-5.22S256.18,111.28,259.29,111.28Zm0,8.67c2,0,2.73-1.69,2.73-3.36s-.74-3.45-2.73-3.45-2.73,1.69-2.73,3.45S257.31,120,259.29,120Z" fill="#10426b"/><path d="M318.93,25.85c0,1.34,1.05,1.86,2.23,1.86.77,0,1.95-.22,1.95-1.25s-1.5-1.27-3-1.66-3-1-3-2.86c0-2.06,1.95-3,3.76-3,2.1,0,4,.91,4,3.23h-2.13c-.08-1.21-.93-1.52-2-1.52-.7,0-1.52.3-1.52,1.14s.48.88,3,1.53c.73.18,3,.64,3,2.93,0,1.84-1.45,3.22-4.18,3.22-2.22,0-4.3-1.1-4.27-3.58Z" fill="#10426b"/><path d="M326.56,19.14h4.53c2.51,0,3.48,1.59,3.48,3.22s-1,3.23-3.48,3.23h-2.32v3.6h-2.21Zm2.21,4.73h1.72c1,0,1.94-.23,1.94-1.51s-.92-1.51-1.94-1.51h-1.72Z" fill="#10426b"/><path d="M336,19.14h2.21V29.19H336Z" fill="#10426b"/><path d="M300.42,42.75c0,1.33,1.05,1.86,2.23,1.86.77,0,2-.23,2-1.26s-1.5-1.27-3-1.66-3-1-3-2.86c0-2,1.95-3,3.76-3,2.1,0,4,.92,4,3.24h-2.13c-.07-1.21-.93-1.52-2-1.52-.7,0-1.52.29-1.52,1.14s.48.87,3,1.52c.73.18,3,.65,3,2.93,0,1.84-1.45,3.22-4.18,3.22-2.22,0-4.3-1.09-4.27-3.57Z" fill="#10426b"/><path d="M314.66,46.08h-1.9v-1h0a2.58,2.58,0,0,1-2.22,1.21c-2.13,0-2.66-1.2-2.66-3V38.8h2v4.12c0,1.19.35,1.78,1.28,1.78s1.55-.6,1.55-2.08V38.8h2Z" fill="#10426b"/><path d="M316.18,36h2v3.66h0a2.66,2.66,0,0,1,2.29-1.08c1.45,0,3,1.17,3,3.83s-1.56,3.84-3,3.84a2.52,2.52,0,0,1-2.39-1.12h0v.92h-1.9Zm3.63,4.08c-1.18,0-1.7,1.12-1.7,2.34s.52,2.33,1.7,2.33,1.71-1.12,1.71-2.33S321,40.11,319.81,40.11Z" fill="#10426b"/><path d="M324.78,38.8h1.9v1h0A2.59,2.59,0,0,1,329,38.61c2.12,0,2.66,1.19,2.66,3v4.47h-2V42c0-1.19-.35-1.79-1.28-1.79-1.09,0-1.55.61-1.55,2.09v3.81h-2Z" fill="#10426b"/><path d="M336.66,38.61a3.57,3.57,0,0,1,3.77,3.84,3.77,3.77,0,1,1-7.53,0A3.57,3.57,0,0,1,336.66,38.61Zm0,6.17c1.36,0,1.77-1.17,1.77-2.33s-.41-2.34-1.77-2.34-1.76,1.17-1.76,2.34S335.31,44.78,336.66,44.78Z" fill="#10426b"/><path d="M346.91,45.16h0a2.43,2.43,0,0,1-2.21,1.12c-2.2,0-3.27-1.89-3.27-3.9s1.09-3.77,3.23-3.77a2.5,2.5,0,0,1,2.15,1.08h0V36h2v10h-1.9Zm-1.74-5c-1.31,0-1.76,1.13-1.76,2.33s.52,2.34,1.76,2.34,1.72-1.16,1.72-2.36S346.46,40.11,345.17,40.11Z" fill="#10426b"/><path d="M352,42.93c0,1.27.67,1.85,1.78,1.85a1.66,1.66,0,0,0,1.58-1h1.76a3.28,3.28,0,0,1-3.41,2.45A3.55,3.55,0,0,1,350,42.45a3.64,3.64,0,0,1,3.71-3.84c2.48,0,3.67,2.08,3.53,4.32Zm3.25-1.27c-.19-1-.62-1.55-1.59-1.55A1.57,1.57,0,0,0,352,41.66Z" fill="#10426b"/><line x1="129.76" y1="15.31" x2="110.52" y2="15.31" fill="none" stroke="#10426b" stroke-miterlimit="10"/><line x1="253.51" y1="15.31" x2="234.26" y2="15.31" fill="none" stroke="#10426b" stroke-miterlimit="10"/></svg>